<svg width="661" height="969" viewBox="0 0 661 969" fill="none" xmlns="http://www.w3.org/2000/svg">
<path d="M608.015 0L574.236 30.9333C540.458 61.8667 472.901 123.733 469.861 185.6C466.652 247.467 528.129 309.333 566.13 371.2C604.131 433.067 618.655 494.933 634.7 556.8C650.745 618.667 668.31 680.533 657.839 742.4C647.367 804.267 609.197 866.133 589.943 897.067L570.859 928H0V897.067C0 866.133 0 804.267 0 742.4C0 680.533 0 618.667 0 556.8C0 494.933 0 433.067 0 371.2C0 309.333 0 247.467 0 185.6C0 123.733 0 61.8667 0 30.9333V0H608.015Z" fill="url(#paint0_linear_109_1265)"/>
<defs>
<linearGradient id="paint0_linear_109_1265" x1="567.5" y1="464" x2="16.5" y2="464" gradientUnits="userSpaceOnUse">
<stop offset="0.0131994" stop-color="#FFA800"/>
<stop offset="1" stop-color="#FFCE6D"/>
</linearGradient>
</defs>
</svg>
